{"title":"Oceans Trilogy 720p BRRip AC3 XviD-LEGiTiMATE","uid":6921229,"size":10106964741,"categoryP":"video","categoryS":"hd___movies","magnet":"?xt=urn:btih:24d5a1caa8f9313d597ffd1987d6cd394e83d1c5&amp;dn=Oceans+Trilogy+720p+BRRip+AC3+XviD-LEGiTiMATE&amp;tr=udp%3A%2F%2Ftracker.openbittorrent.com%3A80&amp;tr=udp%3A%2F%2Fopen.demonii.com%3A1337&amp;tr=udp%3A%2F%2Ftracker.coppersurfer.tk%3A6969&amp;tr=udp%3A%2F%2Fexodus.desync.com%3A6969","seeders":0,"leechers":1,"uploader":"neon","files":-1,"time":1325230887,"description":"The Ocean's Trilogy is a series of three caper comedies directed by Steven Soderbergh and produced by Jerry Weintraub for Warner Bros., between 2001 and 2007. The first of the films, Ocean's Eleven (2001) was a remake of the 1960 film of the same name and was followed, due to an immense commercial success, by sequels Ocean's Twelve (2004) and Ocean's Thirteen (2007). The films combine well-known elements from heist films and con artist films, presented in a slick and cool style,with a notable absence of violence and gunplay,and an emphasis on humor and lightheartedness.\n\nSamples of each movie avalible\n\nFormat : AVI\nFormat/Info : Audio Video Interleave\nFormat profile : OpenDML\nFile size : 2.98 GiB\nDuration : 1h 56mn\nOverall bit rate : 3 657 Kbps\nWriting application : VirtualDubMod 1.5.10.2 (build 2540/release)\nWriting library : VirtualDubMod build 2540/release\n\nVideo\nID : 0\nFormat : MPEG-4 Visual\nFormat profile : Advanced Simple@L5\nFormat settings, BVOP : 1\nFormat settings, QPel : No\nFormat settings, GMC : No warppoints\nFormat settings, Matrix : Default (MPEG)\nCodec ID : XVID\nCodec ID/Hint : XviD\nDuration : 1h 56mn\nBit rate : 3 007 Kbps\nWidth : 1 264 pixels\nHeight : 528 pixels\nDisplay aspect ratio : 2.40:1\nFrame rate : 23.976 fps\nColor space : YUV\nChroma subsampling : 4:2:0\nBit depth : 8 bits\nScan type : Progressive\nCompression mode : Lossy\nBits/(Pixel*Frame) : 0.188\nStream size : 2.45 GiB (82%)\nWriting library : XviD 1.2.1 (UTC 2008-12-04)\n\nAudio\nID : 1\nFormat : AC-3\nFormat/Info : Audio Coding 3\nMode extension : CM (complete main)\nCodec ID : 2000\nDuration : 1h 56mn\nBit rate mode : Constant\nBit rate : 640 Kbps\nChannel(s) : 6 channels\nChannel positions : Front: L C R, Side: L R, LFE\nSampling rate : 48.0 KHz\nBit depth : 16 bits\nCompression mode : Lossy\nStream size : 534 MiB (17%)\nAlignment : Split accross interleaves\nInterleave, duration : 42 ms (1.00 video frame)\nInterleave, preload duration : 500 ms \n &lt;a href=&quot;\nhttp://www.imdb.com/title/tt0240772/&quot; rel=&quot;nofollow&quot; target=&quot;_NEW&quot;&gt;\nhttp://www.imdb.com/title/tt0240772/&lt;/a&gt; &lt;a href=&quot;\nhttp://www.imdb.com/title/tt0349903/&quot; rel=&quot;nofollow&quot; target=&quot;_NEW&quot;&gt;\nhttp://www.imdb.com/title/tt0349903/&lt;/a&gt; &lt;a href=&quot;\nhttp://www.imdb.com/title/tt0496806/&quot; rel=&quot;nofollow&quot; target=&quot;_NEW&quot;&gt;\nhttp://www.imdb.com/title/tt0496806/&lt;/a&gt;","torrent":{"xt":"urn:btih:24d5a1caa8f9313d597ffd1987d6cd394e83d1c5","amp;dn":"Oceans+Trilogy+720p+BRRip+AC3+XviD-LEGiTiMATE","amp;tr":["udp%3A%2F%2Ftracker.openbittorrent.com%3A80","udp%3A%2F%2Fopen.demonii.com%3A1337","udp%3A%2F%2Ftracker.coppersurfer.tk%3A6969","udp%3A%2F%2Fexodus.desync.com%3A6969"],"infoHash":"24d5a1caa8f9313d597ffd1987d6cd394e83d1c5","infoHashBuffer":{"type":"Buffer","data":[36,213,161,202,168,249,49,61,89,127,253,25,135,214,205,57,78,131,209,197]},"announce":[],"urlList":[]}}